<svg width="20" height="18" viewBox="0 0 20 18" fill="none" xmlns="http://www.w3.org/2000/svg">
<path d="M0 1.79999H20" stroke="#FFE4DC" stroke-miterlimit="10"/>
<path d="M0 16.2H20" stroke="#FFE4DC" stroke-miterlimit="10"/>
<path d="M0 9H20" stroke="#FFE4DC" stroke-miterlimit="10"/>
<path d="M10.56 3.16801C11.3995 3.16801 12.08 2.55553 12.08 1.80001C12.08 1.04448 11.3995 0.432007 10.56 0.432007C9.72057 0.432007 9.04004 1.04448 9.04004 1.80001C9.04004 2.55553 9.72057 3.16801 10.56 3.16801Z" fill="#FFE4DC"/>
<path d="M14.8399 17.568C15.6794 17.568 16.3599 16.9556 16.3599 16.2C16.3599 15.4445 15.6794 14.832 14.8399 14.832C14.0005 14.832 13.3199 15.4445 13.3199 16.2C13.3199 16.9556 14.0005 17.568 14.8399 17.568Z" fill="#FFE4DC"/>
<path d="M3.12 9.00002C3.12 9.75602 3.8 10.368 4.6 10.368C5.44 10.368 6.12 9.75602 6.12 9.00002C6.12 8.24402 5.44 7.63202 4.6 7.63202C3.76 7.63202 3.12 8.24402 3.12 9.00002Z" fill="#FFE4DC"/>
</svg>
