<?xml version="1.0" encoding="utf-8"?>
<!-- Svg Vector Icons : http://www.onlinewebfonts.com/icon -->
<!DOCTYPE svg PUBLIC "-//W3C//DTD SVG 1.1//EN" "http://www.w3.org/Graphics/SVG/1.1/DTD/svg11.dtd">
<svg version="1.1" xmlns="http://www.w3.org/2000/svg" xmlns:xlink="http://www.w3.org/1999/xlink" fill="#ffe4dc" width="24" height="24" x="0px" y="0px" viewBox="0 0 1000 1000" enable-background="new 0 0 1000 1000" xml:space="preserve">
<metadata> Svg Vector Icons : http://www.onlinewebfonts.com/icon </metadata>
<g><g transform="translate(0.000000,511.000000) scale(0.100000,-0.100000)"><path d="M4368.7,4975.9c-243.7-88.6-387.7-299.1-412.6-603.6l-16.6-191.1H2760c-778.1,0-1218.3-11.1-1290.3-30.5c-146.7-41.5-357.2-252-398.7-398.7c-16.6-60.9-30.5-329.5-30.5-603.6c0-487.3,0-492.9,69.2-559.3c60.9-63.7,85.8-69.2,346.1-69.2c202.1,0,276.9-8.3,276.9-33.2c0-19.4,74.8-1553.3,166.1-3408.5l163.4-3372.5L2137-4430c138.4-257.5,360-360,764.2-360c116.3,0,276.9,13.8,351.6,30.4c263,55.4,476.3,274.1,526.1,534.4c13.8,83.1,52.6,160.6,96.9,207.7l72,72h1049.4c1132.5,0,1162.9-2.8,1215.5-149.5c13.8-38.8,41.5-124.6,58.2-188.3c44.3-163.3,188.3-340.6,343.3-418.1c105.2-55.4,185.5-72,401.5-83.1c484.6-22.1,739.3,83.1,875,362.7l72,146.7l166.1,3389.2C8220.2,980.4,8295,2508.8,8295,2514.4c0,2.8,119.1,5.5,263,5.5c243.7,0,271.3,5.5,332.3,69.2c69.2,66.5,69.2,72,69.2,559.3c0,271.4-13.8,539.9-30.4,598.1c-38.8,146.8-257.5,365.5-398.8,404.3c-72,19.4-523.3,30.5-1290.3,30.5H6060.5l-16.6,182.8c-30.5,318.4-188.3,542.7-432,617.5C5468,5023,4490.5,5017.5,4368.7,4975.9z M5553.8,4546.8c49.8-38.8,66.5-88.6,77.5-207.7l11.1-157.8H5000h-642.4l11.1,157.8c22.1,249.2,38.8,257.5,631.3,257.5C5437.5,4596.6,5498.4,4591.1,5553.8,4546.8z M8475,3696.7c66.5-63.7,69.2-83.1,69.2-415.3v-346.1H5000H1455.8v346.1c0,332.3,2.8,351.7,69.2,415.3l66.5,69.2H5000h3408.5L8475,3696.7z M7879.7,2472.8c0-27.7-74.8-1545-163.4-3369.8l-163.4-3322.7l-85.8-77.5c-83.1-72-102.4-77.5-343.3-77.5c-293.5,0-420.9,52.6-451.3,185.5c-49.9,224.3-72,282.4-149.6,387.6c-49.8,69.2-141.2,144-227.1,185.5l-144,72H5022.1c-1246,0-1248.8,0-1428.7-174.4c-110.8-105.2-185.5-240.9-210.4-384.9c-11.1-58.1-49.8-138.4-85.8-180c-60.9-72-80.3-77.5-332.3-85.8c-290.7-11.1-409.8,19.4-462.4,116.3c-22.1,36-88.6,1226.6-191.1,3325.5c-88.6,1797-160.6,3308.8-163.4,3358.7v88.6h2865.8C7724.6,2519.9,7879.7,2517.1,7879.7,2472.8z"/><path d="M3255.6,1473.3c-77.5-77.5-83.1-94.2-69.2-246.4c8.3-88.6,47.1-938.7,85.8-1891.1c80.3-1929.9,69.2-1860.7,268.6-1877.3c132.9-11.1,213.2,74.7,213.2,227c0,63.7-36,927.6-80.3,1924.4c-88.6,1988.1-74.8,1882.9-257.5,1927.2C3355.3,1553.6,3324.8,1539.7,3255.6,1473.3z"/><path d="M4872.6,1487.1l-74.8-63.7V-512l2.8-1935.5l60.9-49.8c80.3-66.5,207.7-63.7,276.9,5.5c55.4,55.4,55.4,91.4,55.4,1990.8v1938.2l-72,55.4C5027.7,1567.4,4964,1564.6,4872.6,1487.1z"/><path d="M6536.7,1523.1c-130.1-49.8-127.4-27.7-210.4-1888.4c-44.3-980.2-80.3-1846.9-80.3-1924.4c0-188.3,66.5-265.8,213.2-252c199.4,16.6,188.3-52.6,268.6,1877.3c41.5,952.5,74.7,1810.8,77.5,1907.8c5.5,160.6,0,180-69.2,240.9C6653.1,1556.3,6625.4,1561.9,6536.7,1523.1z"/></g></g>
</svg>